<svg xmlns="http://www.w3.org/2000/svg" xmlns:xlink="http://www.w3.org/1999/xlink" width="1366" zoomAndPan="magnify" viewBox="0 0 1024.5 576" height="768" preserveAspectRatio="xMidYMid meet" version="1.0"><defs><clipPath id="2aae2a820e"><path d="M 0 0.140625 L 1024 0.140625 L 1024 575.859375 L 0 575.859375 Z M 0 0.140625 " clip-rule="nonzero"/></clipPath><clipPath id="8c3428395d"><path d="M 0 0.140625 L 1024 0.140625 L 1024 279 L 0 279 Z M 0 0.140625 " clip-rule="nonzero"/></clipPath></defs><g clip-path="url(#2aae2a820e)"><path fill="#ffffff" d="M 0 0.140625 L 1024 0.140625 L 1024 575.859375 L 0 575.859375 Z M 0 0.140625 " fill-opacity="1" fill-rule="nonzero"/><path fill="#ffffff" d="M 0 0.140625 L 1024 0.140625 L 1024 575.859375 L 0 575.859375 Z M 0 0.140625 " fill-opacity="1" fill-rule="nonzero"/></g><g clip-path="url(#8c3428395d)"><path fill="#ff914d" d="M -16.105469 -97.394531 L 1040.539062 -97.394531 L 1040.539062 238.511719 C 985.796875 262.25 904.105469 287.953125 811.878906 275.03125 C 704.785156 260.039062 646.15625 201.761719 592.101562 170.6875 C 497.464844 116.285156 325.070312 92.417969 -16.53125 238.074219 Z M -16.105469 -97.394531 " fill-opacity="1" fill-rule="nonzero"/></g></svg>