<svg xmlns="http://www.w3.org/2000/svg" xmlns:xlink="http://www.w3.org/1999/xlink" width="1366" zoomAndPan="magnify" viewBox="0 0 1024.5 576" height="768" preserveAspectRatio="xMidYMid meet" version="1.0"><defs><clipPath id="e54a8c6afc"><path d="M 0 0.140625 L 1024 0.140625 L 1024 575.859375 L 0 575.859375 Z M 0 0.140625 " clip-rule="nonzero"/></clipPath><clipPath id="a0b35f6f6b"><path d="M 1 0.140625 L 1023 0.140625 L 1023 364 L 1 364 Z M 1 0.140625 " clip-rule="nonzero"/></clipPath></defs><g clip-path="url(#e54a8c6afc)"><path fill="#ffffff" d="M 0 0.140625 L 1024 0.140625 L 1024 575.859375 L 0 575.859375 Z M 0 0.140625 " fill-opacity="1" fill-rule="nonzero"/><path fill="#ffffff" d="M 0 0.140625 L 1024 0.140625 L 1024 575.859375 L 0 575.859375 Z M 0 0.140625 " fill-opacity="1" fill-rule="nonzero"/></g><g clip-path="url(#a0b35f6f6b)"><path fill="#ff914d" d="M 1.699219 0.105469 L 1022.722656 0.105469 L 1022.722656 324.683594 C 969.828125 347.625 890.890625 372.460938 801.773438 359.976562 C 698.289062 345.488281 641.636719 289.175781 589.40625 259.148438 C 497.957031 206.578125 331.375 183.519531 1.289062 324.261719 Z M 1.699219 0.105469 " fill-opacity="1" fill-rule="nonzero"/></g></svg>