<svg xmlns="http://www.w3.org/2000/svg" xmlns:xlink="http://www.w3.org/1999/xlink" width="1366" zoomAndPan="magnify" viewBox="0 0 1024.5 576" height="768" preserveAspectRatio="xMidYMid meet" version="1.0"><defs><clipPath id="13b2d27eed"><path d="M 0 0.140625 L 1024 0.140625 L 1024 575.859375 L 0 575.859375 Z M 0 0.140625 " clip-rule="nonzero"/></clipPath><clipPath id="872841dcd4"><path d="M 0 0.175781 L 1024 0.175781 L 1024 376 L 0 376 Z M 0 0.175781 " clip-rule="nonzero"/></clipPath></defs><g clip-path="url(#13b2d27eed)"><path fill="#ffffff" d="M 0 0.140625 L 1024 0.140625 L 1024 575.859375 L 0 575.859375 Z M 0 0.140625 " fill-opacity="1" fill-rule="nonzero"/><path fill="#ffffff" d="M 0 0.140625 L 1024 0.140625 L 1024 575.859375 L 0 575.859375 Z M 0 0.140625 " fill-opacity="1" fill-rule="nonzero"/></g><g clip-path="url(#872841dcd4)"><path fill="#ff914d" d="M -15.660156 0.101562 L 1040.984375 0.101562 L 1040.984375 336.007812 C 986.242188 359.746094 904.550781 385.449219 812.324219 372.53125 C 705.230469 357.535156 646.601562 299.257812 592.550781 268.183594 C 497.914062 213.78125 325.519531 189.914062 -16.082031 335.570312 Z M -15.660156 0.101562 " fill-opacity="1" fill-rule="nonzero"/></g></svg>