<svg xmlns="http://www.w3.org/2000/svg" xmlns:xlink="http://www.w3.org/1999/xlink" width="1366" zoomAndPan="magnify" viewBox="0 0 1024.5 1152" height="1536" preserveAspectRatio="xMidYMid meet" version="1.0"><defs><clipPath id="66bd81d4de"><path d="M 0 0.28125 L 1024 0.28125 L 1024 576 L 0 576 Z M 0 0.28125 " clip-rule="nonzero"/></clipPath><clipPath id="ff1087610a"><path d="M 0 328 L 1024 328 L 1024 576 L 0 576 Z M 0 328 " clip-rule="nonzero"/></clipPath><clipPath id="7a13eebf09"><path d="M 0 330 L 1024 330 L 1024 576 L 0 576 Z M 0 330 " clip-rule="nonzero"/></clipPath><clipPath id="1d6435b98b"><path d="M 0 334 L 1024 334 L 1024 576 L 0 576 Z M 0 334 " clip-rule="nonzero"/></clipPath><clipPath id="c570fa8819"><path d="M 0 344 L 1024 344 L 1024 576 L 0 576 Z M 0 344 " clip-rule="nonzero"/></clipPath><clipPath id="51b0bc0d6e"><path d="M 0 576 L 1024 576 L 1024 1151.71875 L 0 1151.71875 Z M 0 576 " clip-rule="nonzero"/></clipPath><clipPath id="89b2411934"><path d="M 0 576 L 1024 576 L 1024 833.78125 L 0 833.78125 Z M 0 576 " clip-rule="nonzero"/></clipPath><clipPath id="d117c4a2c1"><path d="M 0 576 L 1024 576 L 1024 832 L 0 832 Z M 0 576 " clip-rule="nonzero"/></clipPath><clipPath id="ce8d06e2c2"><path d="M 0 576 L 1024 576 L 1024 828 L 0 828 Z M 0 576 " clip-rule="nonzero"/></clipPath><clipPath id="d3893b8a7a"><path d="M 0 576 L 1024 576 L 1024 818 L 0 818 Z M 0 576 " clip-rule="nonzero"/></clipPath></defs><g clip-path="url(#66bd81d4de)"><path fill="#ffffff" d="M 0 0.28125 L 1024 0.28125 L 1024 576 L 0 576 Z M 0 0.28125 " fill-opacity="1" fill-rule="nonzero"/><path fill="#ffffff" d="M 0 0.28125 L 1024 0.28125 L 1024 576 L 0 576 Z M 0 0.28125 " fill-opacity="1" fill-rule="nonzero"/></g><g clip-path="url(#ff1087610a)"><path fill="#ffeee0" d="M 1024 328.148438 L 1024 595.214844 L 0 595.214844 L 0 394.585938 C 149.707031 401.292969 270.089844 451.652344 425.234375 455.65625 C 575.238281 459.886719 723.828125 428.140625 864.550781 383.914062 C 908.464844 370.117188 951.605469 355.101562 993.789062 339.582031 C 998.703125 337.765625 1003.636719 335.917969 1008.582031 334.042969 C 1013.703125 332.105469 1018.84375 330.140625 1024 328.148438 Z M 1024 328.148438 " fill-opacity="1" fill-rule="nonzero"/></g><g clip-path="url(#7a13eebf09)"><path fill="#ffb171" d="M 1024 330.265625 L 1024 595.214844 L 0 595.214844 L 0 459.777344 C 95.210938 452.363281 188.820312 465.992188 285.945312 476.578125 C 297.824219 477.875 309.746094 479.625 321.097656 480.984375 C 524.226562 507.566406 684.910156 455.980469 864.550781 383.914062 C 876.8125 378.996094 889.167969 373.980469 901.625 368.890625 C 935.199219 355.140625 971.183594 343.542969 1008.582031 334.042969 C 1013.695312 332.746094 1018.835938 331.488281 1024 330.265625 Z M 1024 330.265625 " fill-opacity="1" fill-rule="nonzero"/></g><g clip-path="url(#1d6435b98b)"><path fill="#ff914d" d="M 1024 334.472656 L 1024 595.214844 L 0 595.214844 L 0 511.253906 C 92.34375 525.136719 184.214844 540.949219 288.847656 538.304688 C 355.328125 536.566406 420.90625 528.886719 486.335938 516.644531 C 649.195312 486.683594 806.726562 428.667969 953.78125 365.476562 C 977.109375 356.011719 1000.285156 345.566406 1023.910156 334.515625 C 1023.9375 334.5 1023.96875 334.484375 1024 334.472656 Z M 1024 334.472656 " fill-opacity="1" fill-rule="nonzero"/></g><g clip-path="url(#c570fa8819)"><path fill="#ff751f" d="M 974.40625 377.109375 C 990.863281 366.246094 1007.394531 355.246094 1024 344.3125 L 1024 595.214844 L 0 595.214844 L 0 561.886719 C 26.832031 556.617188 53.679688 552.574219 80.269531 549.871094 C 124.527344 545.476562 167.859375 544.671875 209.320312 548.332031 C 444.046875 568.042969 645.175781 591.660156 858.296875 454.957031 C 897.042969 430.105469 935.390625 403.363281 974.40625 377.109375 Z M 974.40625 377.109375 " fill-opacity="1" fill-rule="nonzero"/></g><g clip-path="url(#51b0bc0d6e)"><path fill="#ffffff" d="M 0 576 L 1024 576 L 1024 1151.71875 L 0 1151.71875 Z M 0 576 " fill-opacity="1" fill-rule="nonzero"/><path fill="#ffffff" d="M 0 576 L 1024 576 L 1024 1151.71875 L 0 1151.71875 Z M 0 576 " fill-opacity="1" fill-rule="nonzero"/></g><g clip-path="url(#89b2411934)"><path fill="#ffeee0" d="M 0 833.582031 L 0 566.515625 L 1024 566.515625 L 1024 767.144531 C 874.292969 760.433594 753.910156 710.074219 598.765625 706.074219 C 448.761719 701.84375 300.175781 733.585938 159.449219 777.816406 C 115.535156 791.613281 72.394531 806.628906 30.210938 822.144531 C 25.296875 823.960938 20.363281 825.808594 15.417969 827.683594 C 10.296875 829.621094 5.15625 831.589844 0 833.582031 Z M 0 833.582031 " fill-opacity="1" fill-rule="nonzero"/></g><g clip-path="url(#d117c4a2c1)"><path fill="#ffb171" d="M 0 831.460938 L 0 566.515625 L 1024 566.515625 L 1024 701.953125 C 928.789062 709.367188 835.179688 695.738281 738.054688 685.148438 C 726.175781 683.855469 714.253906 682.101562 702.902344 680.742188 C 499.773438 654.164062 339.089844 705.746094 159.449219 777.816406 C 147.1875 782.734375 134.835938 787.746094 122.375 792.839844 C 88.800781 806.589844 52.816406 818.1875 15.417969 827.683594 C 10.304688 828.980469 5.164062 830.242188 0 831.460938 Z M 0 831.460938 " fill-opacity="1" fill-rule="nonzero"/></g><g clip-path="url(#ce8d06e2c2)"><path fill="#ff914d" d="M 0 827.257812 L 0 566.515625 L 1024 566.515625 L 1024 650.472656 C 931.65625 636.59375 839.785156 620.777344 735.152344 623.425781 C 668.671875 625.164062 603.09375 632.839844 537.664062 645.085938 C 374.808594 675.046875 217.277344 733.0625 70.21875 796.25 C 46.890625 805.714844 23.714844 816.164062 0.09375 827.214844 C 0.0625 827.226562 0.03125 827.242188 0 827.257812 Z M 0 827.257812 " fill-opacity="1" fill-rule="nonzero"/></g><g clip-path="url(#d3893b8a7a)"><path fill="#ff751f" d="M 49.59375 784.621094 C 33.136719 795.480469 16.605469 806.480469 0 817.417969 L 0 566.515625 L 1024 566.515625 L 1024 599.839844 C 997.167969 605.113281 970.320312 609.15625 943.730469 611.859375 C 899.472656 616.25 856.140625 617.058594 814.679688 613.394531 C 579.953125 593.683594 378.824219 570.070312 165.707031 706.769531 C 126.957031 731.625 88.609375 758.363281 49.59375 784.621094 Z M 49.59375 784.621094 " fill-opacity="1" fill-rule="nonzero"/></g></svg>