<svg xmlns="http://www.w3.org/2000/svg" xmlns:xlink="http://www.w3.org/1999/xlink" width="2000" zoomAndPan="magnify" viewBox="0 0 1500 1499.999933" height="2000" preserveAspectRatio="xMidYMid meet" version="1.0"><defs><clipPath id="13909efb87"><path d="M 1014 1026 L 1184 1026 L 1184 1184 L 1014 1184 Z M 1014 1026 " clip-rule="nonzero"/></clipPath><clipPath id="647671674a"><path d="M 1034.820312 1017.496094 L 1192.132812 1161.097656 L 1163.3125 1192.671875 L 1006 1049.066406 Z M 1034.820312 1017.496094 " clip-rule="nonzero"/></clipPath><clipPath id="43406456cb"><path d="M 1034.820312 1017.496094 L 1192.132812 1161.097656 L 1163.3125 1192.671875 L 1006 1049.066406 Z M 1034.820312 1017.496094 " clip-rule="nonzero"/></clipPath><clipPath id="6baaacf45b"><path d="M 1034.820312 1017.496094 L 1192.132812 1161.097656 L 1163.3125 1192.671875 L 1006 1049.066406 Z M 1034.820312 1017.496094 " clip-rule="nonzero"/></clipPath></defs><rect x="-150" width="1800" fill="#ffffff" y="-149.999993" height="1799.99992" fill-opacity="1"/><rect x="-150" width="1800" fill="#ffffff" y="-149.999993" height="1799.99992" fill-opacity="1"/><path fill="#000000" d="M 911.824219 531.71875 C 910.246094 533.289062 908.441406 534.679688 906.414062 535.828125 C 894.261719 542.738281 878.804688 538.480469 871.894531 526.328125 C 860.707031 506.628906 846.820312 488.429688 830.625 472.242188 C 820.734375 462.355469 820.734375 446.328125 830.625 436.441406 C 840.511719 426.550781 856.539062 426.550781 866.425781 436.441406 C 885.824219 455.839844 902.480469 477.660156 915.914062 501.308594 C 921.667969 511.441406 919.679688 523.863281 911.824219 531.71875 " fill-opacity="1" fill-rule="nonzero"/><path fill="#000000" d="M 785.234375 415.75 C 777.972656 423.011719 766.695312 425.394531 756.804688 420.875 C 697.738281 393.894531 628.660156 390.777344 567.269531 412.328125 C 554.078125 416.957031 539.628906 410.023438 535 396.832031 C 530.371094 383.636719 537.3125 369.1875 550.496094 364.558594 C 625.203125 338.324219 705.941406 341.972656 777.847656 374.824219 C 790.5625 380.636719 796.164062 395.65625 790.351562 408.371094 C 789.058594 411.195312 787.308594 413.679688 785.234375 415.75 " fill-opacity="1" fill-rule="nonzero"/><path fill="#000000" d="M 651.4375 988.960938 C 561.273438 988.960938 476.511719 953.855469 412.765625 890.101562 C 349.011719 826.347656 313.90625 741.59375 313.90625 651.4375 C 313.90625 561.273438 349.011719 476.511719 412.765625 412.765625 C 476.511719 349.011719 561.273438 313.90625 651.4375 313.90625 C 741.59375 313.90625 826.355469 349.011719 890.101562 412.765625 C 953.855469 476.511719 988.960938 561.273438 988.960938 651.4375 C 988.960938 741.59375 953.855469 826.347656 890.101562 890.101562 C 826.355469 953.855469 741.59375 988.960938 651.4375 988.960938 Z M 1276.894531 1166.414062 L 986.964844 907.269531 C 1113.410156 741.859375 1101.023438 504.347656 949.769531 353.09375 C 785 188.324219 517.863281 188.324219 353.09375 353.09375 C 188.324219 517.863281 188.324219 785 353.09375 949.769531 C 504.347656 1101.023438 741.859375 1113.410156 907.269531 986.964844 L 1166.414062 1276.894531 C 1196.359375 1310.390625 1248.308594 1311.851562 1280.082031 1280.074219 C 1311.851562 1248.308594 1310.402344 1196.359375 1276.894531 1166.414062 " fill-opacity="1" fill-rule="nonzero"/><g clip-path="url(#13909efb87)"><g clip-path="url(#647671674a)"><g clip-path="url(#43406456cb)"><g clip-path="url(#6baaacf45b)"><path fill="#000000" d="M 1051.980469 1062.089844 C 1044.066406 1070.757812 1030.582031 1071.335938 1021.867188 1063.378906 C 1013.152344 1055.421875 1012.5 1041.945312 1020.417969 1033.273438 C 1028.332031 1024.605469 1041.8125 1024.027344 1050.527344 1031.984375 C 1059.242188 1039.941406 1059.894531 1053.417969 1051.980469 1062.089844 Z M 1113.4375 1089.410156 C 1104.71875 1081.453125 1091.238281 1082.03125 1083.324219 1090.703125 C 1075.410156 1099.371094 1076.058594 1112.851562 1084.777344 1120.804688 C 1093.492188 1128.761719 1106.972656 1128.183594 1114.886719 1119.515625 C 1122.800781 1110.84375 1122.152344 1097.367188 1113.4375 1089.410156 Z M 1176.277344 1146.773438 C 1167.5625 1138.816406 1154.078125 1139.394531 1146.164062 1148.066406 C 1138.25 1156.734375 1138.902344 1170.214844 1147.617188 1178.171875 C 1156.332031 1186.128906 1169.816406 1185.550781 1177.730469 1176.878906 C 1185.644531 1168.210938 1184.992188 1154.730469 1176.277344 1146.773438 Z M 1176.277344 1146.773438 " fill-opacity="1" fill-rule="nonzero"/></g></g></g></g></svg>